<svg width="70" height="70" viewBox="0 0 70 70" fill="none" xmlns="http://www.w3.org/2000/svg">
<rect x="1" y="1" width="68" height="68" stroke="#FF9900" stroke-width="2"/>
<path d="M30.7054 24.9812C30.7054 27.4546 32.7105 29.4598 35.1838 29.4598C37.6572 29.4598 39.6623 27.4546 39.6623 24.9812C39.6623 22.5079 37.6572 20.5028 35.1838 20.5028C32.7105 20.5028 30.7054 22.5079 30.7054 24.9812Z" fill="#666666"/>
<path fill-rule="evenodd" clip-rule="evenodd" d="M35 65C51.5686 65 65 51.5685 65 35C65 18.4315 51.5686 5 35 5C18.4314 5 5 18.4315 5 35C5 51.5685 18.4314 65 35 65ZM24.35 24.9811C24.35 18.9978 29.2004 14.1473 35.1838 14.1473C41.1673 14.1473 46.0176 18.9978 46.0176 24.9811C46.0176 30.9645 41.1673 35.8154 35.1838 35.8154C29.2004 35.8154 24.35 30.9645 24.35 24.9811ZM46.0823 41.3881C45.9448 41.4983 43.3457 43.5522 39.0085 44.4358L45.5554 50.9243C46.7067 52.0738 46.7081 53.9389 45.5586 55.0902C44.4091 56.2414 42.5444 56.2432 41.3927 55.0935L35.0368 48.904L29.2639 55.0536C28.6859 55.6532 27.9149 55.9547 27.1431 55.9547C26.407 55.9547 25.6703 55.6808 25.0986 55.1296C23.9274 54.0003 23.8935 52.1355 25.0228 50.9643L31.2369 44.4701C26.7782 43.6073 24.0718 41.4998 23.9324 41.3881C22.6633 40.3702 22.4594 38.5163 23.4772 37.247C24.4949 35.9778 26.3487 35.7739 27.6182 36.7916C27.645 36.8133 30.4756 38.9398 35.0366 38.9429C39.5977 38.9398 42.3698 36.8133 42.3966 36.7916C43.666 35.7739 45.5198 35.9778 46.5375 37.247C47.5553 38.5163 47.3515 40.3702 46.0823 41.3881Z" fill="#666666"/>
</svg>
